<svg xmlns="http://www.w3.org/2000/svg" xmlns:xlink="http://www.w3.org/1999/xlink" width="600" zoomAndPan="magnify" viewBox="0 0 450 299.999988" height="400" preserveAspectRatio="xMidYMid meet" version="1.2"><defs><clipPath id="582562a0e6"><path d="M 0 143 L 449.230469 143 L 449.230469 280.980469 L 0 280.980469 Z M 0 143 "/></clipPath><clipPath id="678ada2a54"><path d="M 98.394531 49.007812 L 165.957031 49.007812 L 165.957031 116.570312 L 98.394531 116.570312 Z M 98.394531 49.007812 "/></clipPath><clipPath id="88b2afa493"><path d="M 132.175781 49.007812 C 113.519531 49.007812 98.394531 64.132812 98.394531 82.789062 C 98.394531 101.445312 113.519531 116.570312 132.175781 116.570312 C 150.832031 116.570312 165.957031 101.445312 165.957031 82.789062 C 165.957031 64.132812 150.832031 49.007812 132.175781 49.007812 Z M 132.175781 49.007812 "/></clipPath><clipPath id="da61cd073f"><path d="M 253.621094 49.007812 L 321.1875 49.007812 L 321.1875 116.570312 L 253.621094 116.570312 Z M 253.621094 49.007812 "/></clipPath><clipPath id="9596470574"><path d="M 287.40625 49.007812 C 268.746094 49.007812 253.621094 64.132812 253.621094 82.789062 C 253.621094 101.445312 268.746094 116.570312 287.40625 116.570312 C 306.0625 116.570312 321.1875 101.445312 321.1875 82.789062 C 321.1875 64.132812 306.0625 49.007812 287.40625 49.007812 Z M 287.40625 49.007812 "/></clipPath><clipPath id="453271552c"><path d="M 358 197 L 374 197 L 374 215.796875 L 358 215.796875 Z M 358 197 "/></clipPath></defs><g id="593ceba896"><g clip-rule="nonzero" clip-path="url(#582562a0e6)"><path style=" stroke:none;fill-rule:evenodd;fill:#02c8f0;fill-opacity:1;" d="M 49.90625 156.097656 L 49.90625 143.617188 L -0.0117188 143.617188 L -0.0117188 156.097656 C -0.0117188 197.449219 33.511719 230.972656 74.863281 230.972656 L 162.214844 230.972656 C 170.070312 230.972656 177.46875 234.667969 182.183594 240.953125 L 204.644531 270.902344 C 209.140625 276.898438 216.089844 280.554688 223.574219 280.867188 C 231.058594 281.175781 238.289062 278.109375 243.265625 272.507812 L 272.730469 239.351562 C 277.46875 234.019531 284.261719 230.972656 291.386719 230.972656 L 374.359375 230.972656 C 415.710938 230.972656 449.230469 197.449219 449.230469 156.097656 L 449.230469 143.617188 L 399.316406 143.617188 L 399.316406 156.097656 C 399.316406 169.882812 388.144531 181.054688 374.359375 181.054688 L 291.386719 181.054688 C 270 181.054688 249.632812 190.203125 235.421875 206.191406 L 226.25 216.515625 L 222.117188 211.003906 C 207.972656 192.152344 185.785156 181.054688 162.214844 181.054688 L 74.863281 181.054688 C 61.078125 181.054688 49.90625 169.882812 49.90625 156.097656 Z M 49.90625 156.097656 "/></g><g clip-rule="nonzero" clip-path="url(#678ada2a54)"><g clip-rule="nonzero" clip-path="url(#88b2afa493)"><path style=" stroke:none;fill-rule:nonzero;fill:#02c8f0;fill-opacity:1;" d="M 98.394531 49.007812 L 165.957031 49.007812 L 165.957031 116.570312 L 98.394531 116.570312 Z M 98.394531 49.007812 "/></g></g><g clip-rule="nonzero" clip-path="url(#da61cd073f)"><g clip-rule="nonzero" clip-path="url(#9596470574)"><path style=" stroke:none;fill-rule:nonzero;fill:#02c8f0;fill-opacity:1;" d="M 253.621094 49.007812 L 321.1875 49.007812 L 321.1875 116.570312 L 253.621094 116.570312 Z M 253.621094 49.007812 "/></g></g><path style=" stroke:none;fill-rule:evenodd;fill:#000000;fill-opacity:1;" d="M 289.058594 19.050781 C 253.917969 19.050781 225.429688 47.808594 225.429688 83.28125 C 225.429688 118.757812 253.917969 147.515625 289.058594 147.515625 C 319.910156 147.515625 345.628906 125.355469 351.457031 95.945312 C 352.265625 91.851562 352.691406 87.617188 352.691406 83.28125 C 352.691406 78.949219 352.265625 74.714844 351.457031 70.621094 C 345.628906 41.210938 319.910156 19.050781 289.058594 19.050781 Z M 240.480469 83.28125 C 240.480469 56.199219 262.230469 34.242188 289.058594 34.242188 C 315.890625 34.242188 337.640625 56.199219 337.640625 83.28125 C 337.640625 110.367188 315.890625 132.324219 289.058594 132.324219 C 262.230469 132.324219 240.480469 110.367188 240.480469 83.28125 Z M 240.480469 83.28125 "/><path style=" stroke:none;fill-rule:evenodd;fill:#000000;fill-opacity:1;" d="M 348.308594 72.371094 C 348.910156 75.917969 349.222656 79.5625 349.222656 83.28125 C 349.222656 87.003906 348.910156 90.648438 348.308594 94.195312 L 357.4375 94.195312 L 357.4375 93.503906 C 357.4375 91.222656 358.339844 89.039062 359.933594 87.429688 C 361.53125 85.816406 363.695312 84.90625 365.953125 84.90625 C 368.214844 84.90625 370.375 85.816406 371.972656 87.429688 C 373.222656 88.691406 374.046875 90.300781 374.34375 92.035156 C 374.953125 91.578125 375.515625 91.054688 376.015625 90.480469 C 377.699219 88.554688 378.722656 86.035156 378.722656 83.28125 C 378.722656 80.285156 377.503906 77.554688 375.542969 75.578125 C 373.585938 73.597656 370.882812 72.371094 367.910156 72.371094 Z M 348.308594 72.371094 "/><path style=" stroke:none;fill-rule:evenodd;fill:#000000;fill-opacity:1;" d="M 360.90625 107.328125 L 360.90625 93.503906 C 360.90625 92.152344 361.441406 90.859375 362.386719 89.902344 C 363.332031 88.949219 364.613281 88.410156 365.953125 88.410156 C 367.292969 88.410156 368.574219 88.949219 369.519531 89.90625 C 370.464844 90.859375 371 92.152344 371 93.503906 L 371 107.324219 L 366.546875 113.214844 C 366.535156 113.230469 366.519531 113.246094 366.503906 113.261719 C 366.359375 113.394531 366.144531 113.445312 365.953125 113.445312 C 365.765625 113.445312 365.546875 113.394531 365.402344 113.261719 C 365.386719 113.246094 365.371094 113.230469 365.355469 113.214844 Z M 360.90625 107.328125 "/><path style=" stroke:none;fill-rule:evenodd;fill:#000000;fill-opacity:1;" d="M 359.234375 116.0625 C 359.300781 115.90625 359.371094 115.753906 359.449219 115.597656 L 360.765625 112.910156 L 362.601562 115.339844 C 362.746094 115.527344 362.90625 115.707031 363.089844 115.867188 C 363.851562 116.558594 364.875 116.949219 365.953125 116.949219 C 367.035156 116.949219 368.058594 116.558594 368.820312 115.867188 C 369 115.707031 369.164062 115.527344 369.308594 115.339844 L 371.140625 112.910156 L 372.460938 115.597656 C 372.535156 115.753906 372.609375 115.90625 372.675781 116.0625 C 373.390625 117.699219 373.71875 119.480469 373.71875 121.234375 C 373.71875 123.765625 373.027344 126.445312 371.433594 128.550781 C 370.171875 130.21875 368.273438 131.554688 365.953125 131.554688 C 363.636719 131.554688 361.734375 130.21875 360.476562 128.550781 C 358.882812 126.445312 358.1875 123.765625 358.1875 121.234375 C 358.1875 119.480469 358.519531 117.699219 359.234375 116.0625 Z M 359.234375 116.0625 "/><path style=" stroke:none;fill-rule:evenodd;fill:#000000;fill-opacity:1;" d="M 360.90625 149.910156 L 360.90625 135.230469 C 360.90625 134.71875 360.980469 134.214844 361.128906 133.738281 C 362.574219 134.574219 364.207031 135.058594 365.953125 135.058594 C 367.699219 135.058594 369.332031 134.574219 370.777344 133.738281 C 370.925781 134.214844 371 134.71875 371 135.230469 L 371 149.90625 L 366.546875 155.796875 C 366.535156 155.8125 366.519531 155.828125 366.503906 155.84375 C 366.359375 155.972656 366.144531 156.027344 365.953125 156.027344 C 365.765625 156.027344 365.546875 155.972656 365.402344 155.84375 C 365.386719 155.828125 365.371094 155.8125 365.355469 155.792969 Z M 360.90625 149.910156 "/><path style=" stroke:none;fill-rule:evenodd;fill:#000000;fill-opacity:1;" d="M 360.90625 191.632812 L 360.90625 176.953125 C 360.90625 176.707031 360.925781 176.460938 360.960938 176.21875 C 362.445312 177.117188 364.136719 177.636719 365.953125 177.636719 C 367.769531 177.636719 369.460938 177.117188 370.949219 176.21875 C 370.984375 176.460938 371 176.707031 371 176.953125 L 371 191.628906 L 366.546875 197.519531 C 366.535156 197.539062 366.519531 197.554688 366.503906 197.566406 C 366.359375 197.699219 366.144531 197.753906 365.953125 197.753906 C 365.765625 197.753906 365.546875 197.699219 365.402344 197.566406 C 365.386719 197.550781 365.371094 197.535156 365.355469 197.519531 Z M 360.90625 191.632812 "/><path style=" stroke:none;fill-rule:evenodd;fill:#000000;fill-opacity:1;" d="M 359.234375 158.644531 C 359.300781 158.488281 359.371094 158.332031 359.449219 158.179688 L 360.765625 155.492188 L 362.601562 157.917969 C 362.746094 158.109375 362.90625 158.285156 363.089844 158.449219 C 363.851562 159.140625 364.875 159.527344 365.953125 159.527344 C 367.035156 159.527344 368.058594 159.140625 368.820312 158.449219 C 369 158.289062 369.164062 158.109375 369.308594 157.917969 L 371.140625 155.492188 L 372.460938 158.179688 C 372.535156 158.332031 372.609375 158.488281 372.675781 158.644531 C 373.390625 160.28125 373.71875 162.058594 373.71875 163.816406 C 373.71875 166.347656 373.027344 169.023438 371.433594 171.132812 C 370.171875 172.800781 368.273438 174.136719 365.953125 174.136719 C 363.636719 174.136719 361.734375 172.800781 360.476562 171.132812 C 358.882812 169.023438 358.1875 166.347656 358.1875 163.816406 C 358.1875 162.058594 358.519531 160.28125 359.234375 158.644531 Z M 359.234375 158.644531 "/><g clip-rule="nonzero" clip-path="url(#453271552c)"><path style=" stroke:none;fill-rule:evenodd;fill:#000000;fill-opacity:1;" d="M 359.234375 200.367188 C 359.300781 200.214844 359.371094 200.058594 359.449219 199.90625 L 360.765625 197.21875 L 362.601562 199.644531 C 362.746094 199.832031 362.90625 200.011719 363.089844 200.175781 C 363.851562 200.863281 364.875 201.253906 365.953125 201.253906 C 367.035156 201.253906 368.058594 200.863281 368.820312 200.175781 C 369 200.011719 369.164062 199.835938 369.308594 199.644531 L 371.140625 197.21875 L 372.460938 199.90625 C 372.535156 200.058594 372.609375 200.214844 372.675781 200.367188 C 373.390625 202.003906 373.71875 203.785156 373.71875 205.539062 C 373.71875 208.070312 373.027344 210.75 371.433594 212.859375 C 370.171875 214.523438 368.273438 215.863281 365.953125 215.863281 C 363.636719 215.863281 361.734375 214.523438 360.476562 212.859375 C 358.882812 210.75 358.1875 208.070312 358.1875 205.539062 C 358.1875 203.785156 358.519531 202.003906 359.234375 200.367188 Z M 359.234375 200.367188 "/></g></g></svg>